<?xml version="1.0" encoding="utf-8"?>
<!-- Generator: Adobe Illustrator 18.0.0, SVG Export Plug-In . SVG Version: 6.00 Build 0)  -->
<!DOCTYPE svg PUBLIC "-//W3C//DTD SVG 1.1//EN" "http://www.w3.org/Graphics/SVG/1.1/DTD/svg11.dtd">
<svg version="1.1" id="Isolation_Mode" xmlns="http://www.w3.org/2000/svg" xmlns:xlink="http://www.w3.org/1999/xlink" x="0px"
	 y="0px" viewBox="0 0 141.7 41.1" enable-background="new 0 0 141.7 41.1" xml:space="preserve">
<g>
	<path fill="#1AB6EA" d="M48,10.5c-1,0-3,0-4.1,0.1v10.6c1.3,0.1,2.5,0.2,3.8,0.2c4.3,0,6.5-2.3,6.5-5.5
		C54.3,12.7,52.5,10.5,48,10.5"/>
	<path fill="#1AB6EA" d="M95.4,10.2c-5.6,0-9.9,4.4-9.9,10.3c0,5.9,4.3,10.3,9.9,10.3c5.8,0,9.9-4.5,9.9-10.3
		C105.3,14.6,100.9,10.2,95.4,10.2"/>
	<path fill="#1AB7EA" d="M0,41.1h141.7V0H0V41.1z M33.7,32.3l-9.1-21.2l-9.1,21.2h-1.9L23.9,8.6h1.5l10.3,23.8H33.7z M47.9,23
		c-1.1,0-2.6,0-3.9-0.1v9.5h-1.9V8.8c1.3,0,4.4-0.1,5.8-0.1c6.5,0,8.4,3.6,8.4,7.1C56.2,19.5,53.7,23,47.9,23 M80.1,10.5h-8.7v21.8
		h-1.8V10.5h-8.7V8.8h19.3V10.5z M95.4,32.7c-6.7,0-11.8-5-11.8-12.1c0-6.8,5-12.1,11.8-12.1c6.7,0,11.8,5,11.8,12.1
		C107.2,27.5,102.1,32.7,95.4,32.7 M120.6,32.7c-2.8,0-6.1-1.3-7.2-3.4l1.1-1.3c1.4,1.9,4,2.9,6.1,2.9c2.9,0,5.6-1.5,5.6-4.4
		c0-6.7-12.2-4.2-12.2-12.1c0-3.3,2.5-5.9,6.9-5.9c2.6,0,5,0.9,6.3,2.4l-1,1.4c-1.4-1.3-3.1-2-5.3-2c-3.1,0-5,1.6-5,4.1
		c0,6.6,12.2,3.9,12.2,12.1C128.1,30.2,124.8,32.7,120.6,32.7"/>
	<path fill="#A7A9AC" d="M7.9,22.3c41.7,6.6,84.2,6.6,126,0c0.1,0.4,0.1,0.7,0.2,1.1C92.2,30,49.6,30,7.7,23.4
		C7.8,23,7.8,22.6,7.9,22.3"/>
</g>
</svg>
