<svg version="1.1" id="Layer_1" xmlns="http://www.w3.org/2000/svg" xmlns:xlink="http://www.w3.org/1999/xlink" x="0px" y="0px" viewBox="0 0 300 58.1" style="enable-background:new 0 0 300 58.1;" xml:space="preserve">
<style type="text/css">
	.color-st0{fill:#76777A;}
	.color-st1{fill:#1D1D1B;}
	.color-st2{fill:#0082CA;}
</style>

	
	<g class="top-logo">
	<polygon class="color-st0" points="188.9,1.7 185.9,9.6 189.4,18.2 182.7,18.2 180.3,24 191.7,24 194.5,30.9 201.4,30.9 	"></polygon>
	<polygon class="color-st0" points="232.7,18.7 219.4,0.9 213.2,0.9 213.2,30.9 219.6,30.9 219.6,11.8 232.7,28.9 	"></polygon>
		<path class="color-st0" d="M290.6,12.9c-2.1-0.6-3.6-1.1-4.7-1.5v6.9c0.4,0.2,1.1,0.2,1.7,0.4c4.9,1.3,6,2.1,6,3.9l0,0
			c0,1.7-1.7,2.8-4.3,2.8c-1.3,0-2.4-0.2-3.4-0.4v6c1.1,0.2,2.1,0.2,3.2,0.2c6.4,0,10.9-3.4,10.9-9.2l0,0
			C300,16.7,296.6,14.4,290.6,12.9"></path>
		<path class="color-st0" d="M285.8,6.6c0.6-0.2,1.3-0.4,2.1-0.4c2.6,0,5.1,1.1,7.7,3l3.4-4.9c-3-2.4-6.6-3.9-11.2-3.9
			c-0.9,0-1.5,0-2.1,0.2L285.8,6.6L285.8,6.6z"></path>
		<path class="color-st0" d="M272.8,9.2c-2.4-5.1-7.7-8.4-14.4-8.4h-11.6v30h11.6c6.9,0,12-3.4,14.4-8.6V9.2z M267.4,15.9c0,5.4-3.6,9-9,9
			h-5.1v-18h5.1C263.8,6.9,267.4,10.5,267.4,15.9L267.4,15.9z"></path>
		<path class="color-st0" d="M160.4,20.2c3.9-1.5,6.4-4.5,6.4-9.2l0,0c0-2.8-0.9-5.1-2.6-6.9c-1.9-1.9-4.9-3-8.8-3H149v6h6
			c3.2,0,5.1,1.5,5.1,4.3l0,0c0,2.6-1.9,4.3-4.9,4.3h-6v5.8h4.5l6.4,9.6h7.7L160.4,20.2z"></path>
		<path class="color-st1" d="M18.7,0.2C7.1,0.2-0.2,7.1-0.2,15.7s5.8,15.4,20.4,15.4c4.9,0,9.6-0.6,14.2-2.1v-6.6c-4.3,1.7-9,2.6-14.2,2.6
			c-6.9,0-10.5-2.6-11.8-6h28.1v-3.2C36.5,7.1,30.5,0.2,18.7,0.2 M7.9,13.1c0-3.6,4.7-6.4,10.7-6.4c5.6,0,10.1,3,10.1,6.4H7.9z"></path>
		<path class="color-st1" d="M105.1,22.3c-3.4,1.5-7.3,2.4-11.2,2.4c-8.8,0-12.4-4.1-12.4-9.2c0-5.1,3.6-9.2,12.4-9.2
			c4.1,0,7.9,0.9,11.2,2.4V1.9C101.7,0.6,97.8,0,93.9,0C79.6,0,73.6,6.9,73.6,15.4s5.8,15.4,20.4,15.4c4.1,0,7.7-0.6,11.2-1.9V22.3z
			"></path>
		<path class="color-st0" d="M127.4,15.2c2.1-1.3,3.9-3,3.9-6.4l0,0c0-2.1-0.6-3.6-2.1-5.1c-1.7-1.7-4.3-2.6-7.7-2.6h-1.9v5.8h0.9
			c2.8,0,4.3,1.1,4.3,3l0,0c0,2.1-1.9,3.2-4.7,3.2h-0.4v5.6h1.9c3.4,0,4.9,1.3,4.9,3.2l0,0c0,2.1-1.7,3.2-4.7,3.2h-2.1v5.8h2.1
			c6.6,0,11.2-2.8,11.2-8.1l0,0C133,18.4,130.8,16.5,127.4,15.2"></path>
		<path class="color-st1" d="M66.7,23.8h-6.4c-4.7,0-5.4-2.6-5.4-6V1.1h-7.7v19.5c0,5.1,2.6,9.4,9,9.4h10.5V23.8z"></path>
	</g>
	<g class="rest-logo">
		<path class="color-st2" d="M37.3,53.2L37.3,53.2c0-1.7,1.1-3,2.8-3s2.6,1.5,2.6,3.2c0,0.2,0,0.2,0,0.4h-3.9c0.2,0.6,0.6,1.1,1.3,1.1
			c0.4,0,0.9-0.2,1.3-0.6l0.9,0.9c-0.4,0.6-1.3,1.1-2.1,1.1C38.6,56.2,37.3,54.9,37.3,53.2z M41.2,52.7c0-0.6-0.4-1.3-1.1-1.3
			S39,51.9,39,52.7H41.2z"></path>
		<path class="color-st2" d="M48.9,50.2h1.5V51c0.4-0.4,0.9-0.9,1.5-0.9c1.1,0,1.9,0.9,1.9,2.1V56h-1.5v-3.2c0-0.9-0.4-1.1-0.9-1.1
			c-0.6,0-1.1,0.4-1.1,1.1V56h-1.5V50.2z"></path>
		<path class="color-st2" d="M60.3,48.2h1.5V51c0.4-0.4,0.9-0.9,1.5-0.9c1.1,0,1.9,0.9,1.9,2.1V56h-1.5v-3.2c0-0.9-0.4-1.1-0.9-1.1
			c-0.6,0-0.9,0.4-0.9,1.1V56h-1.5v-7.7H60.3z"></path>
		<path class="color-st2" d="M71.4,54.5L71.4,54.5c0-1.3,0.9-1.9,2.1-1.9c0.6,0,0.9,0,1.3,0.2l0,0c0-0.6-0.4-1.1-1.1-1.1
			c-0.6,0-1.1,0.2-1.5,0.2l-0.4-1.3c0.6-0.2,1.3-0.4,2.1-0.4s1.5,0.2,1.9,0.6c0.4,0.4,0.6,1.1,0.6,1.9v3.4h-1.5v-0.9
			c-0.4,0.4-0.9,0.6-1.7,0.6C72.3,56.2,71.4,55.5,71.4,54.5z M75.1,54v-0.2c-0.2-0.2-0.6-0.2-1.1-0.2c-0.6,0-1.1,0.2-1.1,0.9l0,0
			c0,0.4,0.4,0.6,0.9,0.6C74.4,54.9,75.1,54.7,75.1,54z"></path>
		<path class="color-st2" d="M82.8,50.2h1.5V51c0.4-0.4,0.9-0.9,1.5-0.9c1.1,0,1.9,0.9,1.9,2.1V56h-1.5v-3.2c0-0.9-0.4-1.1-0.9-1.1
			c-0.6,0-1.1,0.4-1.1,1.1V56h-1.5V50.2z"></path>
		<path class="color-st2" d="M93.9,53.2L93.9,53.2c0-1.7,1.3-3,2.8-3c1.1,0,1.7,0.4,2.1,0.9L98,52.1c-0.4-0.4-0.6-0.6-1.3-0.6
			c-0.9,0-1.3,0.6-1.3,1.5l0,0c0,0.9,0.6,1.5,1.3,1.5c0.4,0,0.9-0.2,1.3-0.6l0.9,1.1c-0.4,0.6-1.1,1.1-2.1,1.1
			C95.2,56.2,93.9,54.9,93.9,53.2z"></path>
		<path class="color-st2" d="M105.1,48.2h1.7v1.5h-1.7V48.2z M105.1,50.2h1.5V56h-1.5V50.2z"></path>
		<path class="color-st2" d="M113.2,50.2h1.5V51c0.4-0.4,0.9-0.9,1.5-0.9c1.1,0,1.9,0.9,1.9,2.1V56h-1.5v-3.2c0-0.9-0.4-1.1-0.9-1.1
			c-0.6,0-1.1,0.4-1.1,1.1V56h-1.5V50.2z"></path>
		<path class="color-st2" d="M124.6,57l0.4-1.3c0.6,0.4,1.1,0.4,1.9,0.4c1.1,0,1.5-0.4,1.5-1.5v-0.2c-0.4,0.6-0.9,0.9-1.7,0.9
			c-1.3,0-2.4-1.1-2.4-2.6l0,0c0-1.7,1.1-2.6,2.4-2.6c0.9,0,1.3,0.4,1.7,0.9v-0.6h1.5v4.5c0,1.1-0.2,1.7-0.6,2.4
			c-0.4,0.4-1.3,0.9-2.4,0.9C126.1,57.7,125.2,57.5,124.6,57z M128.7,53L128.7,53c0-0.9-0.6-1.3-1.3-1.3c-0.9,0-1.3,0.6-1.3,1.3l0,0
			c0,0.9,0.6,1.3,1.3,1.3S128.7,53.6,128.7,53z"></path>
		<path class="color-st2" d="M146.3,55.3V56h-1.5v-7.7h1.5V51c0.4-0.4,0.9-0.9,1.7-0.9c1.3,0,2.6,1.1,2.6,3l0,0c0,1.9-1.3,3-2.6,3
			C147.1,56.2,146.5,55.8,146.3,55.3z M148.8,53.2L148.8,53.2c0-1.1-0.6-1.5-1.3-1.5c-0.6,0-1.3,0.6-1.3,1.5l0,0
			c0,0.9,0.6,1.5,1.3,1.5S148.8,54,148.8,53.2z"></path>
		<path class="color-st2" d="M156.5,50.2h1.5v1.1c0.2-0.9,0.9-1.3,1.7-1.3v1.7l0,0c-1.1,0-1.7,0.6-1.7,1.9v2.1h-1.5V50.2z"></path>
		<path class="color-st2" d="M165.3,54.5L165.3,54.5c0-1.3,0.9-1.9,2.1-1.9c0.6,0,0.9,0,1.3,0.2l0,0c0-0.6-0.4-1.1-1.1-1.1
			s-1.1,0.2-1.5,0.2l-0.4-1.3c0.6-0.2,1.3-0.4,2.1-0.4c0.9,0,1.5,0.2,1.9,0.6c0.4,0.4,0.6,1.1,0.6,1.9v3.4H169v-0.9
			c-0.4,0.4-0.9,0.6-1.7,0.6C166.2,56.2,165.3,55.5,165.3,54.5z M168.8,54v-0.2c-0.2-0.2-0.6-0.2-1.1-0.2c-0.6,0-1.1,0.2-1.1,0.9
			l0,0c0,0.4,0.4,0.6,0.9,0.6C168.3,54.9,168.8,54.7,168.8,54z"></path>
		<path class="color-st2" d="M176.7,50.2h1.5V51c0.4-0.4,0.9-0.9,1.5-0.9c1.1,0,1.9,0.9,1.9,2.1V56h-1.5v-3.2c0-0.9-0.4-1.1-0.9-1.1
			c-0.6,0-0.9,0.4-0.9,1.1V56h-1.5v-5.8H176.7z"></path>
		<path class="color-st2" d="M187.9,53.2L187.9,53.2c0-1.9,1.3-3,2.6-3c0.9,0,1.3,0.4,1.7,0.9v-2.8h1.5V56h-1.5v-0.9
			c-0.4,0.4-0.9,0.9-1.7,0.9C189.1,56.2,187.9,55.1,187.9,53.2z M192.1,53.2L192.1,53.2c0-1.1-0.6-1.5-1.3-1.5
			c-0.6,0-1.3,0.6-1.3,1.5l0,0c0,0.9,0.6,1.5,1.3,1.5C191.5,54.7,192.1,54,192.1,53.2z"></path>
		<path class="color-st2" d="M207.6,50.2h1.7l1.3,3.9l1.3-3.9h1.5l-2.1,5.8h-1.5L207.6,50.2z"></path>
		<path class="color-st2" d="M218.1,54.5L218.1,54.5c0-1.3,0.9-1.9,2.1-1.9c0.6,0,0.9,0,1.3,0.2l0,0c0-0.6-0.4-1.1-1.1-1.1
			s-1.1,0.2-1.5,0.2l-0.4-1.3c0.6-0.2,1.3-0.4,2.1-0.4c0.9,0,1.5,0.2,1.9,0.6c0.4,0.4,0.6,1.1,0.6,1.9v3.4h-1.5v-0.9
			c-0.4,0.4-0.9,0.6-1.7,0.6C218.9,56.2,218.1,55.5,218.1,54.5z M221.7,54v-0.2c-0.2-0.2-0.6-0.2-1.1-0.2c-0.6,0-1.1,0.2-1.1,0.9
			l0,0c0,0.4,0.4,0.6,0.9,0.6C221.3,54.9,221.7,54.7,221.7,54z"></path>
		<path class="color-st2" d="M229.5,48.2h1.5V56h-1.5V48.2z"></path>
		<path class="color-st2" d="M237,54v-3.6h1.5v3.2c0,0.9,0.4,1.1,0.9,1.1c0.6,0,0.9-0.4,0.9-1.1v-3.2h1.5v5.8h-1.5v-0.9
			c-0.4,0.4-0.9,0.9-1.5,0.9C237.6,56.2,237,55.3,237,54z"></path>
		<path class="color-st2" d="M247.9,53.2L247.9,53.2c0-1.7,1.1-3,2.8-3c1.7,0,2.6,1.5,2.6,3.2c0,0.2,0,0.2,0,0.4h-3.9
			c0.2,0.6,0.6,1.1,1.3,1.1c0.4,0,0.9-0.2,1.3-0.6l0.9,0.9c-0.4,0.6-1.3,1.1-2.1,1.1C249.2,56.2,247.9,54.9,247.9,53.2z M251.8,52.7
			c0-0.6-0.4-1.3-1.1-1.3c-0.6,0-1.1,0.4-1.1,1.3H251.8z"></path>
		<path class="color-st2" d="M259,55.3l0.6-1.1c0.6,0.4,1.3,0.6,1.7,0.6s0.6-0.2,0.6-0.4l0,0c0-0.4-0.4-0.4-1.1-0.6
			c-0.9-0.2-1.7-0.6-1.7-1.7l0,0c0-1.1,0.9-1.7,1.9-1.7c0.6,0,1.5,0.2,1.9,0.6l-0.6,1.1c-0.6-0.4-1.1-0.4-1.5-0.4
			c-0.4,0-0.6,0.2-0.6,0.4l0,0c0,0.4,0.4,0.4,1.1,0.6c0.9,0.2,1.7,0.6,1.7,1.7l0,0c0,1.3-0.9,1.9-2.1,1.9
			C260.5,56.2,259.7,55.8,259,55.3z"></path>
	</g>

</svg>