<svg xmlns="http://www.w3.org/2000/svg" viewBox="0 0 512 512" width="512" height="512">
  <rect width="512" height="512" rx="112" fill="#0D1117"/>
  <rect x="6" y="6" width="500" height="500" rx="106" fill="none" stroke="#C8A96A" stroke-opacity="0.22" stroke-width="3"/>
  <g transform="translate(103.12,60.00) scale(0.32667)">
    <g fill="#C8A96A" stroke="#C8A96A" stroke-width="62" stroke-linejoin="round" stroke-linecap="round"><g transform="translate(0.000000,1200.000000) scale(0.100000,-0.100000)"
 stroke="none">
<path d="M2831 8867 c-43 -15 -71 -52 -82 -108 -14 -72 -10 -1188 4 -1229 28
-80 105 -79 146 3 23 47 23 53 25 365 1 174 -1 396 -5 492 -7 154 -6 179 9
210 35 73 -59 68 1325 66 l1242 -1 143 -28 c160 -30 195 -43 249 -86 21 -17
65 -40 98 -51 36 -13 76 -36 100 -59 22 -21 56 -47 75 -59 41 -24 168 -155
222 -227 20 -28 71 -115 113 -193 63 -119 80 -162 100 -250 14 -59 32 -129 40
-156 20 -67 20 -316 -1 -411 -8 -38 -26 -124 -39 -190 -21 -99 -36 -143 -89
-250 -41 -84 -81 -151 -114 -189 -28 -32 -54 -66 -57 -75 -6 -20 -180 -181
-195 -181 -5 0 -34 -20 -65 -45 -30 -25 -81 -57 -113 -71 -31 -14 -87 -43
-124 -65 -72 -44 -170 -73 -277 -85 -83 -8 -113 -24 -151 -76 -37 -50 -39 -96
-7 -125 30 -28 43 -31 179 -43 132 -11 147 -16 238 -69 36 -22 89 -47 118 -56
29 -9 72 -32 95 -51 23 -18 65 -49 92 -67 46 -31 127 -112 261 -260 32 -35 60
-79 73 -114 12 -32 42 -89 66 -126 33 -51 48 -89 60 -145 8 -43 27 -120 41
-172 38 -138 44 -310 14 -445 -12 -55 -32 -152 -45 -215 -16 -72 -36 -137 -56
-175 -17 -33 -46 -89 -64 -123 -18 -35 -48 -80 -68 -100 -19 -21 -48 -57 -64
-82 -45 -66 -255 -255 -321 -288 -15 -8 -57 -32 -94 -54 -77 -46 -126 -62
-252 -83 -50 -9 -120 -25 -156 -37 -63 -21 -81 -21 -665 -22 -540 -1 -606 1
-655 16 -75 23 -165 89 -193 141 -22 42 -22 45 -25 575 -2 356 1 546 8 572 13
48 105 187 170 255 26 28 58 68 71 90 13 22 40 58 60 80 20 22 48 58 63 80 14
22 62 83 106 135 44 52 101 126 127 163 25 38 52 71 60 74 8 3 32 31 54 62 22
31 69 92 104 136 36 44 90 112 120 150 31 39 92 115 135 170 44 55 94 120 112
144 18 25 52 66 75 93 24 27 51 61 60 76 9 15 35 49 58 76 22 27 54 69 70 92
43 61 113 149 167 210 26 29 54 66 62 81 8 15 26 39 41 53 15 14 45 52 68 85
22 33 61 83 87 111 89 95 98 144 31 178 -27 14 -241 16 -1978 16 -1210 0
-1963 -3 -1988 -9 -87 -21 -88 -77 -2 -190 34 -45 77 -103 95 -129 18 -26 48
-63 67 -82 18 -19 40 -50 49 -68 9 -18 38 -57 64 -86 72 -81 227 -276 279
-350 16 -21 49 -62 74 -90 26 -28 54 -66 63 -84 9 -18 38 -57 64 -86 88 -100
167 -197 187 -230 22 -36 70 -94 160 -196 33 -37 72 -87 88 -111 33 -54 112
-157 170 -223 43 -49 95 -117 165 -216 22 -30 50 -64 62 -75 12 -11 47 -51 77
-90 29 -38 78 -101 108 -139 29 -38 65 -90 78 -115 l26 -46 2 -535 2 -535 -22
-45 c-26 -51 -84 -115 -122 -135 -14 -8 -61 -22 -105 -33 -69 -17 -110 -19
-322 -16 -202 2 -247 5 -267 18 -52 34 -52 40 -43 951 5 462 7 876 5 920 -5
96 -41 181 -81 191 -40 10 -84 -20 -96 -65 -7 -27 -10 -373 -8 -1078 3 -981 4
-1040 21 -1071 35 -65 -43 -61 1379 -62 1429 0 1405 -1 1573 63 50 19 122 43
160 55 39 12 86 33 105 47 19 15 65 42 103 61 37 19 84 49 105 67 20 18 60 49
87 69 108 79 301 309 359 428 14 30 41 78 59 107 19 28 39 77 46 110 8 32 31
101 52 153 29 73 40 118 48 199 24 230 9 438 -40 561 -17 41 -41 118 -55 170
-16 62 -37 113 -59 148 -20 29 -46 76 -59 105 -13 29 -43 76 -67 103 -24 28
-58 71 -75 96 -34 49 -219 216 -288 259 -22 15 -50 37 -61 49 -11 13 -57 40
-102 61 -92 42 -111 65 -93 109 16 40 36 55 101 79 31 12 89 46 130 77 157
118 394 375 453 492 15 29 42 73 60 97 25 33 39 67 55 135 12 51 34 124 50
163 42 106 52 165 58 342 7 212 -6 319 -51 429 -20 47 -45 124 -57 172 -14 54
-34 104 -54 133 -18 26 -45 71 -59 100 -15 29 -51 82 -79 119 -74 93 -243 267
-302 310 -27 20 -66 49 -85 66 -19 16 -64 43 -100 59 -36 16 -84 42 -106 58
-42 28 -321 126 -422 148 -78 16 -2654 15 -2701 -2z m1249 -2076 c696 -1 1308
1 1361 5 90 6 98 5 118 -15 11 -11 21 -27 21 -34 0 -17 -40 -76 -105 -157 -27
-34 -68 -86 -90 -115 -80 -106 -121 -158 -166 -208 -25 -29 -63 -77 -84 -107
-47 -68 -106 -137 -214 -251 -64 -67 -95 -92 -130 -104 -102 -35 -484 -44
-648 -14 -33 6 -93 29 -138 54 -44 23 -91 46 -105 50 -14 4 -68 26 -120 50
-116 54 -181 65 -375 65 -223 -1 -332 -14 -414 -50 -109 -47 -129 -43 -218 42
-41 40 -84 88 -95 108 -12 19 -38 53 -58 75 -35 38 -110 134 -192 248 -57 79
-117 153 -175 218 -39 43 -53 67 -53 88 0 54 10 56 326 55 159 0 858 -1 1554
-3z m-555 -995 c190 -43 303 -79 365 -115 139 -83 477 -132 656 -95 25 5 37 1
53 -15 12 -12 21 -25 21 -29 0 -21 -105 -181 -139 -212 -21 -19 -51 -55 -66
-79 -15 -24 -43 -62 -64 -85 -21 -22 -48 -57 -61 -76 -13 -19 -42 -55 -64 -80
-23 -25 -56 -66 -74 -90 -164 -225 -229 -300 -261 -300 -30 0 -93 61 -139 133
-22 34 -50 71 -62 82 -12 11 -47 52 -76 90 -30 39 -70 90 -89 115 -59 76 -158
199 -207 257 -27 31 -48 60 -48 65 0 4 -24 35 -54 67 -30 33 -62 74 -72 93 -9
18 -41 59 -70 90 -57 60 -66 87 -39 125 17 25 70 42 130 44 22 0 56 7 75 14
46 18 208 18 285 1z"/>
</g></g>
  </g>
</svg>